# xmcd
#
# Track frame offsets:
#	150
#	13057
#	31242
#	53890
#	77250
#	92777
#	110479
#	126292
#	155288
#	194949
#	211616
#	243226
#
# Disc length: 3460 seconds
#
# Revision: 1
# Processed by: cddbd v1.4PL0 Copyright (c) Steve Scherf et al.
# Submitted via: audiograbber 1.82.01
#
DISCID=960d820c
DTITLE=Newcomer - Nürnberg attacks vol. 1
DYEAR=2003
DGENRE=Other
TTITLE0=Ernie's Tale - Agent Blonde
TTITLE1=Ernie's Tale - Done with Dickhead
TTITLE2=Ernie's Tale - Fat Old Mama
TTITLE3=Feel Free - Forsaken
TTITLE4=Feel Free - Realize
TTITLE5=Liquid Star Sucker - Para Now I Do
TTITLE6=Liquid Star Sucker - Talking About
TTITLE7=Mars Mushrooms - Sea of tears
TTITLE8=Mars Mushrooms - Get On The Bus
TTITLE9=Mars Mushrooms - Hello Sun
TTITLE10=Argile feat. Moussa - Kinkeliba
TTITLE11=Jobarteh Kunda - Mo Sama Fu
EXTD=
EXTT0=
EXTT1=
EXTT2=
EXTT3=
EXTT4=
EXTT5=
EXTT6=
EXTT7=
EXTT8=
EXTT9=
EXTT10=
EXTT11=
PLAYORDER=
